<svg width="40" height="40" viewBox="0 0 40 40" fill="none" xmlns="http://www.w3.org/2000/svg">
<path opacity="0.4" fill-rule="evenodd" clip-rule="evenodd" d="M20 40C31.0457 40 40 31.0457 40 20C40 8.95431 31.0457 -7.8281e-07 20 2.06624e-06C8.95431 1.1006e-06 2.7141e-06 8.95431 5.56315e-06 20C4.59751e-06 31.0457 8.95431 40 20 40ZM15.4336 26.2766C14.8555 26.8425 14.8555 27.7598 15.4336 28.3256C16.0116 28.8915 16.9489 28.8915 17.527 28.3256L25.8164 20.212C26.3945 19.6462 26.3945 18.7288 25.8164 18.163L17.527 10.0494C16.9489 9.48355 16.0116 9.48355 15.4336 10.0494C14.8555 10.6152 14.8555 11.5325 15.4336 12.0984L22.6763 19.1875L15.4336 26.2766Z" fill="#B0A6BD"/>
</svg>
